HIERARCHY
ROOT joint_Root
{
	OFFSET 0.0 0.0 0.0
	CHANNELS 6 Xposition Yposition Zposition Zrotation Xrotation Yrotation 
	JOINT Hips
	{
		OFFSET -17.1583 93.1646 452.98
		CHANNELS 6 Xposition Yposition Zposition Zrotation Xrotation Yrotation 
		JOINT Spine
		{
			OFFSET 15.7357 0.0 0.0
			CHANNELS 6 Xposition Yposition Zposition Zrotation Xrotation Yrotation 
			JOINT Chest
			{
				OFFSET 8.98455 -0.406207 0.0
				CHANNELS 6 Xposition Yposition Zposition Zrotation Xrotation Yrotation 
				JOINT Neck
				{
					OFFSET 16.3773 0.0 0.0
					CHANNELS 6 Xposition Yposition Zposition Zrotation Xrotation Yrotation 
					JOINT Head
					{
						OFFSET 6.45672 0.0 0.0
						CHANNELS 6 Xposition Yposition Zposition Zrotation Xrotation Yrotation 
						End Site
						{
							OFFSET 0.0 0.0 0.0
						}
					}
				}
				JOINT Shoulder_L
				{
					OFFSET 12.9942 -0.242716 4.98039
					CHANNELS 6 Xposition Yposition Zposition Zrotation Xrotation Yrotation 
					JOINT UpperArm_L
					{
						OFFSET 5.34809 0.0 0.0
						CHANNELS 6 Xposition Yposition Zposition Zrotation Xrotation Yrotation 
						JOINT LowerArm_L
						{
							OFFSET 24.3286 1.87007e-05 0.0
							CHANNELS 6 Xposition Yposition Zposition Zrotation Xrotation Yrotation 
							JOINT Hand_L
							{
								OFFSET 22.2916 0.0 0.0
								CHANNELS 6 Xposition Yposition Zposition Zrotation Xrotation Yrotation 
								End Site
								{
									OFFSET 0.0 0.0 0.0
								}
							}
						}
					}
				}
				JOINT Shoulder_R
				{
					OFFSET 12.9945 -0.242716 -4.98039
					CHANNELS 6 Xposition Yposition Zposition Zrotation Xrotation Yrotation 
					JOINT UpperArm_R
					{
						OFFSET -5.34813 0.0 0.0
						CHANNELS 6 Xposition Yposition Zposition Zrotation Xrotation Yrotation 
						JOINT LowerArm_R
						{
							OFFSET -24.3289 0.000322201 0.0
							CHANNELS 6 Xposition Yposition Zposition Zrotation Xrotation Yrotation 
							JOINT Hand_R
							{
								OFFSET -22.2915 -0.000108084 0.0
								CHANNELS 6 Xposition Yposition Zposition Zrotation Xrotation Yrotation 
								End Site
								{
									OFFSET 0.0 0.0 0.0
								}
							}
						}
					}
				}
			}
		}
		JOINT UpperLeg_L
		{
			OFFSET -2.19248 -6.46944 0.0
			CHANNELS 6 Xposition Yposition Zposition Zrotation Xrotation Yrotation 
			JOINT LowerLeg_L
			{
				OFFSET 39.0811 0.0 -1.23785e-05
				CHANNELS 6 Xposition Yposition Zposition Zrotation Xrotation Yrotation 
				JOINT Foot_L
				{
					OFFSET 40.9854 0.0 -1.26872e-05
					CHANNELS 6 Xposition Yposition Zposition Zrotation Xrotation Yrotation 
					JOINT Toes_L
					{
						OFFSET 11.7543 0.0 0.0
						CHANNELS 6 Xposition Yposition Zposition Zrotation Xrotation Yrotation 
						End Site
						{
							OFFSET 0.0 0.0 0.0
						}
					}
				}
			}
		}
		JOINT UpperLeg_R
		{
			OFFSET -2.19251 6.46944 0.0
			CHANNELS 6 Xposition Yposition Zposition Zrotation Xrotation Yrotation 
			JOINT LowerLeg_R
			{
				OFFSET -39.0811 -0.00228153 -0.0401928
				CHANNELS 6 Xposition Yposition Zposition Zrotation Xrotation Yrotation 
				JOINT Foot_R
				{
					OFFSET -40.9854 0.0 0.0
					CHANNELS 6 Xposition Yposition Zposition Zrotation Xrotation Yrotation 
					JOINT Toes_R
					{
						OFFSET -11.7543 0.0 0.0
						CHANNELS 6 Xposition Yposition Zposition Zrotation Xrotation Yrotation 
						End Site
						{
							OFFSET 0.0 0.0 0.0
						}
					}
				}
			}
		}
	}
}
MOTION
Frames:	6
Frame Time:	0.0333333
0.000000 0.000000 0.000000 0.000000 0.000000 -0.000000 -3.529780 91.796400 -2.028100 84.063400 1.016450 7.689850 15.735700 0.000005 -0.000001 72.959900 86.199700 -70.786800 8.984550 -0.406207 -0.000000 -0.449896 -2.382530 4.334990 16.377300 -0.000001 -0.000001 9.703290 1.182500 5.911470 6.456720 -0.000001 -0.000000 -7.168690 -0.614964 15.741400 12.994200 -0.242716 4.980390 -93.105900 8.671450 -70.206400 5.348090 -0.000007 -0.000001 -72.011700 26.598300 1.141110 24.328600 0.000019 0.000005 10.866400 26.572500 -23.225300 22.291600 -0.000001 0.000005 -2.397550 4.989980 7.531840 12.994500 -0.242716 -4.980390 87.057700 7.064640 -67.319600 -5.348130 -0.000001 -0.000004 -69.230900 -0.319880 -11.907800 -24.328900 0.000322 -0.000009 12.826300 -15.340400 -139.283000 -22.291500 -0.000108 -0.000004 42.640200 5.666540 -16.879700 -2.192480 -6.469440 -0.000000 -172.980000 7.801310 -2.061060 39.081100 -0.000007 -0.000012 0.395847 -0.693744 29.709800 40.985400 -0.000006 -0.000013 -1.001430 2.029570 -76.054400 11.754300 -0.000000 0.000003 0.000375 0.161057 -10.044700 -2.192510 6.469440 -0.000001 -170.446000 9.789430 -174.729000 -39.081100 -0.002282 -0.040193 0.144514 -0.455452 17.223300 -40.985400 0.000008 0.000006 5.867570 2.643240 -71.555200 -11.754300 -0.000006 -0.000006 -0.011138 0.279618 -5.210860
0.000000 0.000000 0.000000 0.000000 0.000000 -0.000000 -3.535760 91.795800 -2.045280 84.091500 1.072290 7.619490 15.735700 0.000005 -0.000001 72.999400 86.217700 -70.846900 8.984550 -0.406207 -0.000000 -0.483615 -2.366160 4.293340 16.377300 -0.000001 -0.000001 9.748800 1.132520 5.794260 6.456720 -0.000001 -0.000000 -7.123140 -0.666916 15.477500 12.994200 -0.242716 4.980390 -93.109400 8.662220 -70.166400 5.348090 -0.000007 -0.000001 -72.020300 26.451400 1.035730 24.328600 0.000019 0.000005 10.891700 26.626000 -23.236100 22.291600 -0.000001 0.000005 -2.179590 4.988610 7.560840 12.994500 -0.242716 -4.980390 87.064200 7.060630 -67.353000 -5.348130 -0.000001 -0.000004 -69.198400 -0.210010 -12.011300 -24.328900 0.000322 -0.000009 12.990100 -15.426400 -139.066000 -22.291500 -0.000108 -0.000004 42.569700 5.665680 -16.760000 -2.192480 -6.469440 -0.000000 -172.993000 7.816140 -2.153830 39.081100 -0.000007 -0.000012 0.399471 -0.700127 29.708700 40.985400 -0.000006 -0.000013 -0.999627 2.065480 -76.038100 11.754300 -0.000000 0.000003 0.000337 0.161743 -10.016900 -2.192510 6.469440 -0.000001 -170.462000 9.870480 -174.816000 -39.081100 -0.002282 -0.040193 0.147747 -0.465485 17.237200 -40.985400 0.000008 0.000006 5.937820 2.705620 -71.591200 -11.754300 -0.000006 -0.000006 -0.011021 0.278783 -5.245030
0.000000 0.000000 0.000000 0.000000 0.000000 -0.000000 -3.548250 91.808500 -2.038520 84.100400 1.104150 7.619230 15.735700 0.000005 -0.000001 73.502000 86.229200 -71.365300 8.984550 -0.406207 -0.000000 -0.488385 -2.295020 4.261880 16.377300 -0.000001 -0.000001 9.867970 1.094630 5.664770 6.456720 -0.000001 -0.000000 -7.086690 -0.766277 15.252600 12.994200 -0.242716 4.980390 -93.111300 8.673100 -70.177800 5.348090 -0.000007 -0.000001 -71.986300 26.389900 0.942639 24.328600 0.000019 0.000005 10.849200 26.518300 -23.231000 22.291600 -0.000001 0.000005 -2.187370 4.984420 7.648910 12.994500 -0.242716 -4.980390 87.049500 7.098300 -67.359300 -5.348130 -0.000001 -0.000004 -69.073600 -0.256236 -11.963900 -24.328900 0.000322 -0.000009 12.964800 -15.359400 -139.003000 -22.291500 -0.000108 -0.000004 42.023900 5.664080 -16.549200 -2.192480 -6.469440 -0.000000 -172.975000 7.771330 -2.123930 39.081100 -0.000007 -0.000012 0.395677 -0.695737 29.628500 40.985400 -0.000006 -0.000013 -0.984889 2.159740 -75.985500 11.754300 -0.000000 0.000003 0.000404 0.160530 -10.066100 -2.192510 6.469440 -0.000001 -170.467000 9.828600 -174.791000 -39.081100 -0.002282 -0.040193 0.143448 -0.453472 17.171200 -40.985400 0.000008 0.000006 5.797210 2.674650 -71.489400 -11.754300 -0.000006 -0.000006 -0.010669 0.276241 -5.349070
0.000000 0.000000 0.000000 0.000000 0.000000 -0.000000 -3.544220 91.815000 -2.034160 84.134800 1.120220 7.624170 15.735700 0.000005 -0.000001 73.927400 86.235000 -71.817400 8.984550 -0.406207 -0.000000 -0.485503 -2.236130 4.208860 16.377300 -0.000001 -0.000001 10.005700 1.088990 5.515050 6.456720 -0.000001 -0.000000 -7.066200 -0.836448 15.127400 12.994200 -0.242716 4.980390 -93.128300 8.685000 -70.102700 5.348090 -0.000007 -0.000001 -71.896600 26.473700 0.776966 24.328600 0.000019 0.000005 10.837200 26.554800 -23.181000 22.291600 -0.000001 0.000005 -2.182640 4.986190 7.611740 12.994500 -0.242716 -4.980390 87.050000 7.102030 -67.373100 -5.348130 -0.000001 -0.000004 -68.965400 -0.233782 -11.880300 -24.328900 0.000322 -0.000009 13.201000 -15.536900 -138.790000 -22.291500 -0.000108 -0.000004 41.663000 5.660130 -16.070200 -2.192480 -6.469440 -0.000000 -173.008000 7.763920 -2.076650 39.081100 -0.000007 -0.000012 0.390242 -0.688138 29.558500 40.985400 -0.000006 -0.000013 -0.974568 2.178040 -75.932500 11.754300 -0.000000 0.000003 0.000466 0.159367 -10.113300 -2.192510 6.469440 -0.000001 -170.498000 9.828240 -174.746000 -39.081100 -0.002282 -0.040193 0.144927 -0.460311 17.099100 -40.985400 0.000008 0.000006 5.930040 2.643720 -71.515400 -11.754300 -0.000006 -0.000006 -0.011210 0.280132 -5.189810
0.000000 0.000000 0.000000 0.000000 0.000000 -0.000000 -3.533540 91.823800 -2.054760 84.151100 1.141640 7.580880 15.735700 0.000005 -0.000001 74.302800 86.254900 -72.213100 8.984550 -0.406207 -0.000000 -0.511928 -2.176920 4.167900 16.377300 -0.000001 -0.000001 10.111900 1.083770 5.381220 6.456720 -0.000001 -0.000000 -6.990210 -0.882596 15.126000 12.994200 -0.242716 4.980390 -93.134100 8.689400 -70.078200 5.348090 -0.000007 -0.000001 -71.857400 26.425300 0.691547 24.328600 0.000019 0.000005 10.866600 26.553800 -23.239300 22.291600 -0.000001 0.000005 -2.217290 4.983880 7.660320 12.994500 -0.242716 -4.980390 87.031300 7.156380 -67.398700 -5.348130 -0.000001 -0.000004 -68.764400 -0.345130 -11.765400 -24.328900 0.000322 -0.000009 13.419100 -15.614100 -138.445000 -22.291500 -0.000108 -0.000004 41.651200 5.659950 -16.053500 -2.192480 -6.469440 -0.000000 -173.024000 7.769020 -2.124480 39.081100 -0.000007 -0.000012 0.391242 -0.690827 29.525500 40.985400 -0.000006 -0.000013 -0.963696 2.204390 -75.932700 11.754300 -0.000000 0.000003 0.000374 0.161065 -10.044400 -2.192510 6.469440 -0.000001 -170.516000 9.831900 -174.807000 -39.081100 -0.002282 -0.040193 0.143309 -0.455123 17.096600 -40.985400 0.000008 0.000006 5.829520 2.627550 -71.463200 -11.754300 -0.000006 -0.000006 -0.011019 0.278765 -5.245760
0.000000 0.000000 0.000000 0.000000 0.000000 -0.000000 -3.526390 91.820700 -2.068600 84.123500 1.149310 7.575900 15.735700 0.000005 -0.000001 74.855600 86.251900 -72.758300 8.984550 -0.406207 -0.000000 -0.487928 -2.108970 4.183740 16.377300 -0.000001 -0.000001 10.207800 1.063490 5.313790 6.456720 -0.000001 -0.000000 -6.969800 -0.906604 14.971800 12.994200 -0.242716 4.980390 -93.134500 8.674730 -70.045000 5.348090 -0.000007 -0.000001 -71.882600 26.398000 0.578864 24.328600 0.000019 0.000005 10.891900 26.647300 -23.221200 22.291600 -0.000001 0.000005 -2.174540 4.986070 7.614210 12.994500 -0.242716 -4.980390 87.036900 7.154270 -67.431600 -5.348130 -0.000001 -0.000004 -68.563900 -0.527654 -11.637700 -24.328900 0.000322 -0.000009 13.619600 -15.668800 -138.104000 -22.291500 -0.000108 -0.000004 41.556300 5.658410 -15.881500 -2.192480 -6.469440 -0.000000 -173.004000 7.764400 -2.164370 39.081100 -0.000007 -0.000012 0.394753 -0.695773 29.569700 40.985400 -0.000006 -0.000013 -0.958291 2.198750 -75.935000 11.754300 -0.000000 0.000003 0.000309 0.162243 -9.996570 -2.192510 6.469440 -0.000001 -170.477000 9.808380 -174.830000 -39.081100 -0.002282 -0.040193 0.144338 -0.458427 17.098100 -40.985400 0.000008 0.000006 5.858740 2.588560 -71.445400 -11.754300 -0.000006 -0.000006 -0.010905 0.277946 -5.279290
